<?xml version="1.0" ?><svg height="512" preserveAspectRatio="xMidYMid" viewBox="0 0 512 512" width="512" xmlns="http://www.w3.org/2000/svg" xmlns:xlink="http://www.w3.org/1999/xlink"><defs><style>
      .cls-1 {
        fill: #db9834;
      }

      .cls-2 {
        fill: #000;
        opacity: 0.3;
      }

      .cls-2, .cls-3 {
        fill-rule: evenodd;
      }

      .cls-3 {
        fill: #fff;
      }
    </style></defs><g><circle class="cls-1" cx="256" cy="256" r="256"/><path class="cls-2" d="M159.625,154.699 L0.600,238.333 C0.202,244.170 0.000,250.062 0.000,256.000 C0.000,397.385 114.615,512.000 256.000,512.000 C281.990,512.000 307.075,508.127 330.710,500.927 L373.042,384.115 L322.791,230.270 L348.000,198.000 L292.000,136.000 L238.786,175.229 L220.000,146.000 L176.000,173.000 L159.625,154.699 Z"/><path class="cls-3" d="M235.467,142.503 C258.522,142.503 266.207,160.811 266.207,171.481 C266.207,182.151 261.748,204.755 237.085,205.288 C212.422,205.822 204.190,184.294 204.727,173.091 C205.263,161.888 212.412,142.503 235.467,142.503 ZM316.364,213.338 C337.273,213.338 358.429,194.945 358.429,169.871 C358.429,144.797 335.665,128.014 316.364,128.014 C297.062,128.014 272.679,144.797 272.679,169.871 C272.679,194.945 295.453,213.338 316.364,213.338 ZM372.991,271.294 C372.991,257.492 343.588,193.006 275.915,235.876 C274.024,230.857 247.224,189.651 206.344,226.217 C185.958,192.780 141.417,209.945 141.627,235.876 C141.748,250.814 140.009,305.102 140.009,305.102 L195.019,305.102 L195.019,332.470 L256.500,332.470 L256.500,383.986 L372.991,383.986 C372.991,383.986 372.991,285.096 372.991,271.294 ZM170.750,152.162 C184.344,152.026 196.604,163.209 196.637,176.310 C196.670,189.673 184.690,202.069 170.750,202.069 C156.810,202.069 146.519,190.219 146.481,176.310 C146.441,161.896 159.074,152.279 170.750,152.162 Z"/></g></svg>